<?xml version="1.0" encoding="UTF-8" standalone="no"?>
<svg
   xmlns:dc="http://purl.org/dc/elements/1.1/"
   xmlns:cc="http://creativecommons.org/ns#"
   xmlns:rdf="http://www.w3.org/1999/02/22-rdf-syntax-ns#"
   xmlns:svg="http://www.w3.org/2000/svg"
   xmlns="http://www.w3.org/2000/svg"
   version="1.1"
   id="svg2"
   viewBox="0 0 932.87864 103.6377"
   height="29.248861mm"
   width="263.27908mm">
  <defs
     id="defs4" />
  <metadata
     id="metadata7">
    <rdf:RDF>
      <cc:Work
         rdf:about="">
        <dc:format>image/svg+xml</dc:format>
        <dc:type
           rdf:resource="http://purl.org/dc/dcmitype/StillImage" />
        <dc:title></dc:title>
      </cc:Work>
    </rdf:RDF>
  </metadata>
  <g
     transform="translate(-19.827853,-12.991302)"
     id="layer1">
    <g
       transform="matrix(0.0952381,0,0,0.0952381,210.26786,29.594354)"
       id="logo">
      <rect
         style="fill:#f7df1e"
         id="background"
         x="0"
         y="0"
         width="630"
         height="630" />
      <path
         id="j"
         d="m 165.65,526.47375 48.2125,-29.1775 C 223.16375,513.7875 231.625,527.74 251.92,527.74 c 19.45375,0 31.71875,-7.60975 31.71875,-37.21 l 0,-201.3 59.20375,0 0,202.1375 c 0,61.32 -35.94375,89.23125 -88.385,89.23125 -47.36125,0 -74.8525,-24.52875 -88.8075,-54.13" />
      <path
         id="s"
         d="m 375,520.13 48.20625,-27.91125 c 12.69,20.72375 29.1825,35.9475 58.36125,35.9475 24.53125,0 40.17375,-12.26475 40.17375,-29.18125 0,-20.29875 -16.06875,-27.48875 -43.135,-39.32625 l -14.7975,-6.3475 c -42.715,-18.18125 -71.05,-41.0175 -71.05,-89.2275 0,-44.40375 33.83125,-78.2375 86.695,-78.2375 37.6375,0 64.7025,13.11125 84.15375,47.36625 l -46.09625,29.60125 c -10.15,-18.1825 -21.1425,-25.37125 -38.0575,-25.37125 -17.33875,0 -28.335,10.995 -28.335,25.37125 0,17.7625 10.99625,24.9525 36.3675,35.94875 l 14.8,6.3425 c 50.325,21.56875 78.66,43.5575 78.66,93.03375 0,53.2875 -41.86625,82.465 -98.11,82.465 -54.97625,0 -90.5,-26.2175 -107.83625,-60.47375" />
    </g>
    <path
       d="m 113.68252,29.612343 -2.22556,11.127826 45.29323,0 -1.41353,7.187969 -45.32332,0 -2.19548,11.127814 45.29323,0 -2.52631,12.691738 -18.25564,6.045114 -15.81955,-6.045114 1.08271,-5.50377 -11.12782,0 -2.64662,13.353391 26.16542,10.015032 30.16541,-10.015032 4,-20.09023 0.81203,-4.030072 5.14286,-25.864666 z"
       id="path3356" />
    <g
       id="text3389"
       style="font-style:normal;font-variant:normal;font-weight:normal;font-stretch:normal;font-size:125px;line-height:125%;font-family:Jura;-inkscape-font-specification:'Jura, Normal';text-align:start;letter-spacing:0px;word-spacing:0px;writing-mode:lr-tb;text-anchor:start;fill:#000000;fill-opacity:1;stroke:none;stroke-width:1px;stroke-linecap:butt;stroke-linejoin:miter;stroke-opacity:1">
      <path
         id="path3469"
         style=""
         d="m 356.88135,32.888763 q 0,4.882813 2.07519,8.422852 2.19727,3.417969 5.24903,4.02832 l 28.93066,6.225586 q 8.17871,1.831055 11.84082,7.56836 3.66211,5.737304 3.66211,13.427734 0,8.178711 -4.88281,14.160156 -4.76074,5.859375 -15.86914,5.859375 l -10.13184,0 q -6.95801,0 -11.47461,-0.854492 -4.5166,-0.732422 -8.42285,-2.929687 -3.78418,-2.319336 -5.61523,-6.713868 -1.70899,-4.516601 -1.70899,-11.474609 0,-4.02832 3.41797,-4.02832 3.05176,0 3.05176,4.02832 0,10.131836 4.27246,12.939453 4.39453,2.685547 16.47949,2.685547 l 12.45117,0 q 6.46973,0 9.27735,-4.394531 2.80761,-4.394532 2.80761,-9.399414 0,-5.981446 -2.4414,-9.643555 -2.31934,-3.78418 -4.88281,-4.394531 l -28.68653,-6.347657 q -8.54492,-1.831054 -12.20703,-6.347656 -3.54004,-4.638672 -3.54004,-12.939453 0,-8.178711 5.00488,-13.916016 5.00489,-5.859375 16.60157,-5.859375 l 9.27734,0 q 6.95801,0 11.35254,0.854493 4.5166,0.732422 8.42285,2.929687 3.90625,2.197266 5.61524,6.591797 1.83105,4.394531 1.83105,11.352539 0,4.02832 -3.2959,4.02832 -3.17383,0 -3.17383,-4.02832 0,-10.131836 -4.27246,-12.695312 -4.27246,-2.685547 -16.47949,-2.685547 l -11.96289,0 q -6.5918,0 -9.64355,4.272461 -2.92969,4.272461 -2.92969,9.277343 z" />
      <path
         id="path3471"
         style=""
         d="m 432.19873,69.998138 q 0,9.887696 4.15039,12.573243 4.27246,2.685546 15.50293,2.685546 4.27246,0 4.27246,2.929688 0,3.417969 -4.27246,3.417969 -13.18359,0 -19.65332,-4.394532 -6.34766,-4.394531 -6.34766,-17.089843 l 0,-28.564453 q -3.78418,-0.244141 -3.78418,-3.295899 0,-2.685547 3.78418,-2.929687 l 0,-12.695313 q 0,-4.394531 2.92969,-4.394531 3.41797,0 3.41797,4.394531 l 0,12.695313 16.8457,0 q 4.39453,0 4.39453,3.417968 0,2.929688 -4.39453,2.929688 l -16.8457,0 0,28.320312 z" />
      <path
         id="path3473"
         style=""
         d="m 524.72803,102.2247 q 0,7.93457 -2.31934,11.1084 -2.31933,3.2959 -8.78906,3.2959 l -34.5459,0 q -3.90625,0 -6.5918,-1.22071 -2.56347,-1.09863 -3.78418,-3.29589 -1.09863,-2.19727 -1.46484,-4.27246 -0.36621,-2.0752 -0.36621,-4.88282 0,-4.272458 3.17383,-4.272458 3.17383,0 3.17383,4.028318 0,4.27246 1.46484,5.85938 1.46484,1.70898 5.24902,1.70898 l 32.83692,0 q 3.54004,0 4.5166,-1.2207 1.09863,-1.2207 1.09863,-4.88281 l 0,-20.263676 q -7.20215,7.69043 -20.87402,7.69043 l -3.54004,0 q -14.03809,0 -20.62988,-4.272461 -6.46973,-4.394531 -6.46973,-17.211914 l 0,-31.494141 q 0,-4.150391 3.05176,-4.150391 3.2959,0 3.2959,4.150391 l 0,31.37207 q 0,5.249024 0.97656,8.300782 1.09863,3.051757 3.90625,4.638672 2.92969,1.464843 6.22558,1.953125 3.41797,0.36621 9.64356,0.36621 l 3.54004,0 q 10.37597,0 15.625,-5.493164 5.24902,-5.615234 5.24902,-16.235351 l 0,-24.902344 q 0,-4.150391 3.17383,-4.150391 3.17383,0 3.17383,4.150391 l 0,63.598632 z" />
      <path
         id="path3475"
         style=""
         d="m 557.80908,91.604584 -0.85449,0 q -7.08008,0 -9.64355,-3.417969 -2.56348,-3.540039 -2.56348,-12.084961 l 0,-58.71582 q 0,-4.272461 3.17383,-4.272461 3.17382,0 3.17382,4.272461 l 0,60.791015 q 0,3.90625 1.34278,5.493164 1.46484,1.586914 5.37109,1.586914 4.27246,0 4.27246,3.295899 0,3.051758 -4.27246,3.051758 z" />
      <path
         id="path3477"
         style=""
         d="m 631.66162,56.814545 0,4.882812 -51.51367,0 0,8.300781 q 0,5.249024 0.97656,8.300782 1.09863,3.051757 4.02832,4.638672 2.92969,1.464843 6.22559,1.953125 3.41797,0.36621 9.64355,0.36621 l 16.35742,0 q 3.90625,0 5.24903,-1.708984 1.46484,-1.708984 1.46484,-5.859375 0,-4.02832 3.17383,-4.02832 3.17383,0 3.17383,4.394531 0,2.807617 -0.36621,4.882813 -0.36621,2.075195 -1.58692,4.27246 -1.09863,2.075196 -3.78418,3.295899 -2.56347,1.098633 -6.46972,1.098633 l -17.21192,0 q -14.03808,0 -20.62988,-4.272461 -6.5918,-4.394531 -6.5918,-17.211914 l 0,-13.305664 q 0,-12.817383 6.5918,-17.089844 6.5918,-4.394531 20.62988,-4.394531 l 3.54004,0 q 14.03809,0 20.50781,4.394531 6.5918,4.272461 6.5918,17.089844 z m -27.09961,-15.136719 -3.54004,0 q -11.84082,0 -16.35742,2.563476 -4.39453,2.441407 -4.5166,11.108399 l 45.16601,0 q -0.12207,-8.666992 -4.63867,-11.108399 -4.39453,-2.563476 -16.11328,-2.563476 z" />
      <path
         id="path3479"
         style=""
         d="m 703.92725,102.2247 q 0,7.93457 -2.31934,11.1084 -2.31934,3.2959 -8.78906,3.2959 l -34.5459,0 q -3.90625,0 -6.5918,-1.22071 -2.56347,-1.09863 -3.78418,-3.29589 -1.09863,-2.19727 -1.46484,-4.27246 -0.36621,-2.0752 -0.36621,-4.88282 0,-4.272458 3.17383,-4.272458 3.17382,0 3.17382,4.028318 0,4.27246 1.46485,5.85938 1.46484,1.70898 5.24902,1.70898 l 32.83692,0 q 3.54003,0 4.5166,-1.2207 1.09863,-1.2207 1.09863,-4.88281 l 0,-12.573246 -24.41406,0 q -14.03809,0 -20.62989,-4.272461 -6.46972,-4.394531 -6.46972,-17.211914 l 0,-13.305664 q 0,-12.817383 6.46972,-17.089844 6.5918,-4.394531 20.62989,-4.394531 l 3.54004,0 q 13.67187,0 20.87402,7.690429 l 0,-4.272461 q 0,-4.272461 3.17383,-4.272461 3.17383,0 3.17383,4.150391 l 0,63.598632 z m -6.34766,-16.967773 0,-22.094726 q 0,-21.484375 -20.87402,-21.484375 l -3.54004,0 q -6.22559,0 -9.64356,0.488281 -3.2959,0.366211 -6.22558,1.953125 -2.80762,1.464844 -3.90625,4.516602 -0.97657,3.051758 -0.97657,8.300781 l 0,13.061523 q 0,5.249024 0.97657,8.300782 1.09863,3.051757 3.90625,4.638672 2.92968,1.464843 6.22558,1.953125 3.41797,0.36621 9.64356,0.36621 l 24.41406,0 z" />
      <path
         id="path3481"
         style=""
         d="m 752.14502,85.256927 q 10.37598,0 15.625,-5.493164 5.24902,-5.615234 5.24902,-16.235351 l 0,-24.902344 q 0,-4.150391 3.17383,-4.150391 3.17383,0 3.17383,4.150391 l 0,49.560547 q 0,4.272461 -2.92969,4.272461 -3.41797,0 -3.41797,-4.394531 l 0,-4.150391 q -7.20215,7.69043 -20.87402,7.69043 l -3.54004,0 q -14.03809,0 -20.62988,-4.272461 -6.46973,-4.394531 -6.46973,-17.211914 l 0,-31.494141 q 0,-4.150391 3.05176,-4.150391 3.2959,0 3.2959,4.150391 l 0,31.37207 q 0,5.249024 0.97656,8.300782 1.09863,3.051757 3.90625,4.638672 2.92969,1.464843 6.22559,1.953125 3.41796,0.36621 9.64355,0.36621 l 3.54004,0 z" />
      <path
         id="path3483"
         style=""
         d="m 800.48486,93.069427 q -3.05175,0 -3.05175,-3.90625 l 0,-51.269531 q 0,-4.02832 3.17382,-4.02832 3.17383,0 3.17383,4.02832 l 0,51.269531 q 0,3.90625 -3.2959,3.90625 z m 0.12207,-79.833984 q 1.95313,0 4.02832,1.464844 2.19727,1.464844 2.19727,3.540039 0,2.075195 -2.19727,3.540039 -2.07519,1.464844 -4.02832,1.464844 -2.07519,0 -4.15039,-1.464844 -2.07519,-1.464844 -2.07519,-3.540039 0,-2.075195 2.07519,-3.540039 2.0752,-1.464844 4.15039,-1.464844 z" />
      <path
         id="path3485"
         style=""
         d="m 871.896,35.33017 0,-17.822266 q 0,-4.394531 3.41796,-4.394531 2.92969,0 2.92969,4.394531 l 0,70.800781 q 0,4.150391 -3.17383,4.150391 -3.17382,0 -3.17382,-4.272461 l 0,-4.272461 q -7.20215,7.69043 -20.87403,7.69043 l -3.54004,0 q -14.03808,0 -20.62988,-4.272461 -6.46973,-4.394531 -6.46973,-17.211914 l 0,-13.305664 q 0,-12.817383 6.46973,-17.089844 6.5918,-4.394531 20.62988,-4.394531 l 24.41407,0 z m 0,6.347656 -24.41407,0 q -6.22558,0 -9.64355,0.488281 -3.2959,0.366211 -6.22559,1.953125 -2.80761,1.464844 -3.90625,4.516602 -0.97656,3.051758 -0.97656,8.300781 l 0,13.061523 q 0,5.249024 0.97656,8.300782 1.09864,3.051757 3.90625,4.638672 2.92969,1.464843 6.22559,1.953125 3.41797,0.36621 9.64355,0.36621 l 3.54004,0 q 20.87403,0 20.87403,-21.484375 l 0,-22.094726 z" />
      <path
         id="path3487"
         style=""
         d="m 952.70654,56.814545 0,4.882812 -51.51367,0 0,8.300781 q 0,5.249024 0.97656,8.300782 1.09864,3.051757 4.02832,4.638672 2.92969,1.464843 6.22559,1.953125 3.41797,0.36621 9.64355,0.36621 l 16.35743,0 q 3.90625,0 5.24902,-1.708984 1.46484,-1.708984 1.46484,-5.859375 0,-4.02832 3.17383,-4.02832 3.17383,0 3.17383,4.394531 0,2.807617 -0.36621,4.882813 -0.36621,2.075195 -1.58692,4.27246 -1.09863,2.075196 -3.78417,3.295899 -2.56348,1.098633 -6.46973,1.098633 l -17.21192,0 q -14.03808,0 -20.62988,-4.272461 -6.5918,-4.394531 -6.5918,-17.211914 l 0,-13.305664 q 0,-12.817383 6.5918,-17.089844 6.5918,-4.394531 20.62988,-4.394531 l 3.54004,0 q 14.03809,0 20.50782,4.394531 6.59179,4.272461 6.59179,17.089844 z m -27.09961,-15.136719 -3.54004,0 q -11.84082,0 -16.35742,2.563476 -4.39453,2.441407 -4.5166,11.108399 l 45.16602,0 q -0.12207,-8.666992 -4.63868,-11.108399 -4.39453,-2.563476 -16.11328,-2.563476 z" />
    </g>
    <g
       transform="matrix(0.16137226,0,0,0.16137226,5.5163929,11.562542)"
       id="g3398">
      <g
         id="g3400">
        <path
           style="fill:#231f20"
           d="m 119.387,20.312 21.298,0 0,21.045 19.485,0 0,-21.045 21.303,0 0,63.727 -21.303,0 0,-21.339 -19.485,0 0,21.338 -21.298,0 0,-63.726 z"
           id="path3402" />
        <path
           style="fill:#231f20"
           d="m 209.482,41.444 -18.754,0 0,-21.132 58.812,0 0,21.133 -18.759,0 0,42.594 -21.3,0 0,-42.595 z"
           id="path3404" />
        <path
           style="fill:#231f20"
           d="m 258.879,20.312 22.21,0 13.661,22.392 13.648,-22.392 22.219,0 0,63.727 -21.212,0 0,-31.586 -14.655,22.658 -0.366,0 -14.665,-22.658 0,31.585 -20.84,0 0,-63.726 z"
           id="path3406" />
        <path
           style="fill:#231f20"
           d="m 341.219,20.312 21.308,0 0,42.664 29.955,0 0,21.062 -51.263,0 0,-63.726 z"
           id="path3408" />
      </g>
      <path
         style="fill:#231f20"
         d="m 200.662,266.676 55.338,0 0,-42.92 -59.169,0 3.831,42.92 z M 88.686,111.982 l 30.47,341.74 136.762,37.966 136.891,-37.948 30.507,-341.758 -334.63,0 z M 366.694,431.981 256,462.668 l 0,-43.494 -0.067,0.02 -85.858,-23.835 -6.004,-67.298 42.075,0 3.116,34.914 46.68,12.607 0.059,-0.019 0,-66.973 -93.669,0 -11.306,-126.749 104.974,0 0,-41.914 136.766,0 -26.072,292.054 z"
         id="path3410" />
      <path
         style="opacity:0.8;fill:#231f20"
         d="m 307.592,308.59 -51.592,0 0,66.974 46.728,-12.613 4.864,-54.361 z M 256,139.927 l 0,41.914 104.975,0 -3.754,41.915 -101.221,0 0,42.92 97.406,0 -11.499,128.683 -85.907,23.815 0,43.494 110.694,-30.687 26.071,-292.055 -136.765,0 z"
         id="path3412" />
      <g
         style="opacity:0.2"
         id="g3414">
        <polygon
           style="fill:#231f20"
           points="162.331,308.59 256,308.59 256,266.676 200.662,266.676 196.831,223.756 256,223.756 256,181.841 151.025,181.841 "
           id="polygon3416" />
        <polygon
           style="fill:#231f20"
           points="209.262,362.975 206.146,328.061 164.07,328.061 170.074,395.358 255.933,419.193 256,419.174 256,375.563 255.941,375.582 "
           id="polygon3418" />
      </g>
    </g>
  </g>
</svg>
